<?xml version="1.0" encoding="utf-8"?>
<!-- Generator: Adobe Illustrator 20.0.0, SVG Export Plug-In . SVG Version: 6.00 Build 0)  -->
<svg version="1.1" id="Layer_1" xmlns="http://www.w3.org/2000/svg" xmlns:xlink="http://www.w3.org/1999/xlink" x="0px" y="0px"
	 width="274.4px" height="54px" viewBox="0 0 274.4 54" style="enable-background:new 0 0 274.4 54;" xml:space="preserve">
<style type="text/css">
	.st0{fill:#FFFFFF;}
</style>
<g>
	<path class="st0" d="M61.4,13.3c-2.7-2.4-6.2-3.8-9.5-3.8c-1.8,0-3.6,0.4-5.2,1.1C45.1,4.5,39.6,0,33.1,0c-3.6,0-7.1,1.4-9.7,3.9
		c-2.1,2-3.4,4.6-4,7.3c-0.2,0-0.5,0-0.7,0C13,11.2,8.4,15.4,7.9,21C3.2,22.9,0,27.6,0,32.7c0,7.5,4.6,12.7,11.3,12.7c0,0,0,0,0.1,0
		l1.8-0.1c1,0,1.9-0.9,1.9-1.9v-7.1h3.2v7.1c0,1.1,0.9,1.9,1.9,1.9h9.7c1.1,0,1.9-0.9,1.9-1.9V31.7c0-1.1-0.9-1.9-1.9-1.9h-0.2
		l4.6-6.3l4.7,6.4c-0.9,0.2-1.5,1-1.5,1.9v11.8c0,1.1,0.9,1.9,1.9,1.9H49c1.1,0,1.9-0.9,1.9-1.9V33.2h3v10.2c0,1.1,0.9,1.9,1.9,1.9
		h5.6c1.1,0,1.9-0.9,1.9-1.9c0-1.1-0.9-1.9-1.9-1.9h-3.7V31.3c0-1.1-0.9-1.9-1.9-1.9h-6.9c-1.1,0-1.9,0.9-1.9,1.9v10.3h-5.8v-7.9
		h1.5c0.7,0,1.4-0.4,1.7-1s0.3-1.4-0.2-2l-8.4-11.5c-0.4-0.5-0.9-0.8-1.5-0.8l0,0c-0.6,0-1.2,0.3-1.5,0.8l-8.3,11.5
		c-0.4,0.6-0.5,1.4-0.2,2s1,1,1.7,1h2.1v7.9H22v-7.1c0-1.1-0.9-1.9-1.9-1.9h-7c-1.1,0-1.9,0.9-1.9,1.9v7.2c-3.4,0-7.3-2.4-7.3-8.9
		c0-4,2.7-7.5,6.5-8.6c0.9-0.2,1.4-1,1.4-1.9c0-0.1,0-0.2,0-0.3c0-3.8,3.1-6.9,7.1-6.9c0.6,0,1.3,0.1,1.9,0.3s1.2,0,1.6-0.3
		c0.5-0.3,0.8-0.9,0.8-1.5c0.2-5.4,4.6-9.7,10-9.7c5.5,0,10,4.5,10.1,10c0,0.7,0.4,1.4,1.1,1.7c0.7,0.3,1.5,0.2,2-0.2
		c1.6-1.3,3.5-2,5.6-2c5.1,0,10.2,4.5,10.2,9.2c0,1.5-0.4,3-1.1,4.2c-0.5,0.9-0.2,2.1,0.8,2.6c0.9,0.5,2.1,0.2,2.6-0.8
		c1-1.9,1.6-4,1.6-6.1C65.9,19.2,64.2,15.8,61.4,13.3z"/>
	<path d="M33.1,0c6.5,0,12,4.5,13.6,10.6c1.6-0.7,3.4-1.1,5.2-1.1c3.3,0,6.8,1.4,9.5,3.8c2.8,2.5,4.5,5.9,4.7,9.2
		c0,2.1-0.6,4.2-1.6,6.1c-0.3,0.7-1,1-1.7,1c-0.3,0-0.6-0.1-0.9-0.2c-1-0.5-1.3-1.7-0.8-2.6c0.7-1.2,1.1-2.7,1.1-4.2
		c0-4.7-5.1-9.2-10.2-9.2c-2.1,0-4,0.7-5.6,2c-0.3,0.2-0.7,0.4-1.1,0.4c-0.3,0-0.6-0.1-0.9-0.2c-0.7-0.3-1.1-1-1.1-1.7
		c-0.1-5.5-4.6-10-10.1-10c-5.4,0-9.8,4.3-10,9.7c0,0.6-0.3,1.2-0.8,1.5c-0.3,0.2-0.7,0.4-1.1,0.4c-0.2,0-0.3,0-0.5-0.1
		c-0.6-0.2-1.3-0.3-1.9-0.3c-4,0-7.1,3.1-7.1,6.9c0,0.1,0,0.2,0,0.3c0,0.9-0.5,1.7-1.4,1.9c-3.8,1.1-6.5,4.6-6.5,8.6
		c0,6.5,3.9,8.9,7.3,8.9v-7.2c0-1,0.8-1.9,1.9-1.9h7c1,0,1.9,0.8,1.9,1.9v7.1h6.1v-7.9H26c-0.7,0-1.4-0.4-1.7-1
		c-0.3-0.6-0.2-1.4,0.2-2l8.3-11.5c0.3-0.5,0.9-0.8,1.5-0.8s1.1,0.3,1.5,0.8l8.4,11.5c0.5,0.6,0.5,1.4,0.2,2c-0.3,0.6-1,1-1.7,1
		h-1.5v7.9H47V31.3c0-1,0.8-1.9,1.9-1.9h6.9c1,0,1.9,0.8,1.9,1.9v10.2h3.7c1,0,1.9,0.8,1.9,1.9c0,1-0.8,1.9-1.9,1.9h-5.6
		c-1,0-1.9-0.8-1.9-1.9V33.2h-3v10.4c0,1-0.8,1.9-1.9,1.9h-9.6c-1,0-1.9-0.8-1.9-1.9V31.8c0-0.9,0.6-1.7,1.5-1.9l-4.7-6.4l-4.6,6.3
		h0.2c1,0,1.9,0.8,1.9,1.9v11.7c0,1-0.8,1.9-1.9,1.9h-9.7c-1,0-1.9-0.8-1.9-1.9v-7.1h-3.2v7.1c0,1-0.9,1.9-1.9,1.9l-1.8,0.1
		c-0.1,0-0.1,0-0.1,0C4.6,45.4,0,40.2,0,32.7c0-5.1,3.2-9.8,7.9-11.7c0.5-5.6,5.1-9.8,10.8-9.8c0.2,0,0.5,0,0.7,0
		c0.6-2.7,1.9-5.3,4-7.3C26,1.4,29.5,0,33.1,0 M33.1-1c-3.8,0-7.6,1.5-10.4,4.2c-1.9,1.8-3.3,4.3-4.1,7c-5.9,0-10.8,4.3-11.6,10.1
		c-4.8,2.2-8,7.1-8,12.4c0,8.1,5.1,13.7,12.3,13.7h0.1h0l0,0l1.8-0.1c1.5,0,2.9-1.4,2.9-2.9v-6.1h1.2v6.1c0,1.6,1.3,2.9,2.9,2.9h9.7
		c1.6,0,2.9-1.3,2.9-2.9V31.7c0-1.1-0.6-2-1.4-2.5l2.9-4l3.2,4.4c-0.6,0.5-1,1.3-1,2.2v11.8c0,1.6,1.3,2.9,2.9,2.9H49
		c1.6,0,2.9-1.3,2.9-2.9v-9.4h1v9.2c0,1.6,1.3,2.9,2.9,2.9h5.6c1.6,0,2.9-1.3,2.9-2.9s-1.3-2.9-2.9-2.9h-2.7v-9.2
		c0-1.6-1.3-2.9-2.9-2.9h-6.9c-1.6,0-2.9,1.3-2.9,2.9v9.3h-3.8v-5.9h0.5c1.1,0,2.1-0.6,2.6-1.6c0.5-1,0.4-2.2-0.3-3.1l-8.4-11.5
		c-0.6-0.8-1.4-1.2-2.3-1.2c-1,0-1.9,0.5-2.3,1.2l-8.3,11.5c-0.6,0.9-0.7,2.1-0.3,3c0.5,0.9,1.5,1.6,2.6,1.6h1.1v5.9H23v-6.1
		c0-1.6-1.3-2.9-2.9-2.9h-7c-1.6,0-2.9,1.3-2.9,2.9v6.1c-3.9-0.6-5.3-4.5-5.3-7.8c0-3.5,2.4-6.6,5.8-7.6c1.3-0.3,2.1-1.5,2.1-2.9V22
		c0-3.3,2.7-5.9,6.1-5.9c0.5,0,1.1,0.1,1.6,0.2c0.3,0.1,0.5,0.1,0.8,0.1c0.6,0,1.2-0.2,1.7-0.6c0.8-0.5,1.2-1.4,1.2-2.3
		c0.2-4.9,4.1-8.7,9-8.7c4.9,0,9,4,9.1,9c0,1.1,0.7,2.2,1.7,2.6c0.4,0.2,0.8,0.3,1.2,0.3c0.7,0,1.3-0.2,1.8-0.6
		c1.5-1.2,3.1-1.8,5-1.8c4.6,0,9.2,4.1,9.2,8.2c0,1.3-0.3,2.6-1,3.7c-0.4,0.7-0.5,1.5-0.2,2.3c0.2,0.8,0.8,1.4,1.5,1.7
		c0.4,0.2,0.9,0.3,1.4,0.3c1.1,0,2.1-0.6,2.6-1.6c1.1-2.1,1.7-4.4,1.7-6.5v0l0,0c-0.2-3.6-2.1-7.2-5-9.9c-2.9-2.6-6.6-4.1-10.2-4.1
		c-1.5,0-3.1,0.3-4.6,0.8C45.3,3.2,39.6-1,33.1-1L33.1-1z"/>
</g>
<g>
	<g>
		<path class="st0" d="M76.6,43V17.9c0-1.6,1-2.6,2.7-2.6h1.2c1.8,0,2.3,0.7,3,2.4l7,15.7l7-15.7c0.7-1.7,1.3-2.4,3-2.4h1.1
			c1.7,0,2.8,1,2.8,2.6V43c0,1.4-0.6,2.1-2,2.1h-0.6c-1.3,0-1.9-0.7-1.9-2.1V21.4L93.4,36c-0.5,1.2-1,2-3,2s-2.5-0.8-3-2L81,21.5V43
			c0,1.4-0.5,2.1-1.9,2.1h-0.7C77.1,45.1,76.6,44.4,76.6,43z"/>
		<path d="M101.6,15.3c1.7,0,2.8,1,2.8,2.6V43c0,1.4-0.6,2.1-2,2.1h-0.6c-1.3,0-1.9-0.7-1.9-2.1V21.4L93.4,36c-0.5,1.2-1,2-3,2
			s-2.5-0.8-3-2L81,21.5V43c0,1.4-0.5,2.1-1.9,2.1h-0.7c-1.3,0-1.8-0.7-1.8-2.1V17.9c0-1.6,1-2.6,2.7-2.6h1.2c1.8,0,2.3,0.7,3,2.4
			l7,15.7l7-15.7c0.7-1.7,1.3-2.4,3-2.4H101.6 M101.6,14.3h-1.1c-2.2,0-3.1,1.1-3.9,3l-6.1,13.6l-6.1-13.7c-0.7-1.7-1.4-3-3.9-3
			h-1.2c-2.2,0-3.7,1.4-3.7,3.6V43c0,2.7,1.8,3.1,2.8,3.1h0.7c1.3,0,2.9-0.5,2.9-3.1V26.2l4.5,10.2c0.5,1.3,1.3,2.6,3.9,2.6
			c2.6,0,3.4-1.3,3.9-2.6l4.6-10.3V43c0,2,1.1,3.1,2.9,3.1h0.6c1.9,0,3-1.1,3-3.1V17.9C105.4,15.7,103.9,14.3,101.6,14.3L101.6,14.3
			z"/>
	</g>
	<g>
		<path class="st0" d="M118.5,45.5c-5.8,0-8.4-3.9-8.4-9.4V25c0-1.6,0.8-2.2,2-2.2h0.5c1.2,0,2,0.5,2,2.2v10.6c0,3.8,1.9,6,5.2,6
			c2.7,0,4.9-1.5,6-3.9V25c0-1.6,0.8-2.2,2-2.2h0.5c1.2,0,2,0.5,2,2.2v19.6c0,0.1-0.7,0.5-1.6,0.5c-1.4,0-2.7-0.7-2.9-3.5
			C124.3,43.9,121.9,45.5,118.5,45.5z"/>
		<path d="M128.3,22.8c1.2,0,2,0.5,2,2.2v19.6c0,0.1-0.7,0.5-1.6,0.5c-1.4,0-2.7-0.7-2.9-3.5c-1.5,2.3-3.9,3.9-7.3,3.9
			c-5.8,0-8.4-3.9-8.4-9.4V25c0-1.6,0.8-2.2,2-2.2h0.5c1.2,0,2,0.5,2,2.2v10.6c0,3.8,1.9,6,5.2,6c2.7,0,4.9-1.5,6-3.9V25
			c0-1.6,0.8-2.2,2-2.2H128.3 M128.3,21.8h-0.5c-1.9,0-3,1.2-3,3.2v12.5c-1,2-2.8,3.1-5,3.1c-3.5,0-4.2-2.7-4.2-5V25
			c0-2.1-1.1-3.2-3-3.2h-0.5c-1.9,0-3,1.2-3,3.2v11.1c0,6.5,3.5,10.4,9.4,10.4c2.7,0,5-0.9,6.8-2.7c0.8,1.9,2.4,2.3,3.4,2.3
			c0.8,0,2.6-0.4,2.6-1.5V25C131.3,22.9,130.2,21.8,128.3,21.8L128.3,21.8z"/>
	</g>
	<g>
		<path class="st0" d="M136,43V14.2c0-0.1,0.8-0.5,1.6-0.5c1.4,0,2.9,0.7,2.9,3.9V43c0,1.6-0.8,2.1-2,2.1H138
			C136.9,45.1,136,44.6,136,43z"/>
		<path d="M137.6,13.7c1.4,0,2.9,0.7,2.9,3.9V43c0,1.6-0.8,2.1-2,2.1H138c-1.1,0-2-0.5-2-2.1V14.2C136,14.1,136.8,13.7,137.6,13.7
			 M137.6,12.7c-0.5,0-2.6,0.3-2.6,1.5V43c0,1.9,1.1,3.1,3,3.1h0.5c1.9,0,3-1.1,3-3.1V17.6C141.5,13.3,139.1,12.7,137.6,12.7
			L137.6,12.7z"/>
	</g>
	<g>
		<path class="st0" d="M146.3,26.8c-1.4,0-2-0.6-2-1.7v-0.3c0-1.1,0.5-1.7,2-1.7h1.6v-3.4c0-1.5,0.8-2.1,2-2.1h0.5
			c1.2,0,2,0.5,2,2.1v3.4h5c1.4,0,1.9,0.5,1.9,1.6V25c0,1.1-0.5,1.7-2,1.7h-5v11.1c0,2.7,0.8,4.1,2.9,4.1c1.4,0,2.4-0.6,3.1-1.5
			c0.1-0.1,1.3,0.5,1.3,1.9c0,1.7-1.9,3.3-5.1,3.3c-4.5,0-6.6-2.5-6.6-7.2V26.8H146.3z"/>
		<path d="M150.4,17.6c1.2,0,2,0.5,2,2.1v3.4h5c1.4,0,1.9,0.5,1.9,1.6V25c0,1.1-0.5,1.7-2,1.7h-5v11.1c0,2.7,0.8,4.1,2.9,4.1
			c1.4,0,2.4-0.6,3.1-1.5c0,0,0,0,0,0c0.2,0,1.3,0.6,1.3,1.9c0,1.7-1.9,3.3-5.1,3.3c-4.5,0-6.6-2.5-6.6-7.2V26.8h-1.6
			c-1.4,0-2-0.6-2-1.7v-0.3c0-1.1,0.5-1.7,2-1.7h1.6v-3.4c0-1.5,0.8-2.1,2-2.1H150.4 M150.4,16.6h-0.5c-1.9,0-3,1.2-3,3.1v2.4h-0.6
			c-2.6,0-3,1.7-3,2.7v0.3c0,0.8,0.3,2.7,3,2.7h0.6v10.6c0,6.8,4.1,8.2,7.6,8.2c4,0,6.1-2.2,6.1-4.3c0-1.9-1.5-2.9-2.3-2.9h-0.4
			l-0.3,0.3l0,0l0,0c-0.6,0.7-1.3,1.1-2.3,1.1c-0.8,0-1.9,0-1.9-3.1V27.7h4c2.6,0,3-1.7,3-2.7v-0.3c0-1.2-0.5-2.6-2.9-2.6h-4v-2.4
			C153.4,17.7,152.3,16.6,150.4,16.6L150.4,16.6z"/>
	</g>
	<g>
		<path class="st0" d="M163.8,15.9c0-1.6,1-2.5,2.7-2.5s2.6,0.9,2.6,2.5s-1,2.5-2.7,2.5C164.8,18.4,163.8,17.5,163.8,15.9z
			 M164.3,43V25c0-1.6,0.9-2.2,2-2.2h0.5c1.2,0,2,0.5,2,2.2v18c0,1.6-0.8,2.1-2,2.1h-0.5C165.1,45.1,164.3,44.6,164.3,43z"/>
		<path d="M166.5,13.4c1.7,0,2.6,0.9,2.6,2.5c0,1.6-1,2.5-2.7,2.5c-1.6,0-2.6-0.9-2.6-2.5C163.8,14.3,164.8,13.4,166.5,13.4
			 M166.8,22.8c1.2,0,2,0.5,2,2.2v18c0,1.6-0.8,2.1-2,2.1h-0.5c-1.2,0-2-0.5-2-2.1V25c0-1.6,0.9-2.2,2-2.2H166.8 M166.5,12.4
			c-2.2,0-3.7,1.4-3.7,3.5c0,2.1,1.4,3.5,3.6,3.5c2.2,0,3.7-1.4,3.7-3.5C170.1,13.7,168.7,12.4,166.5,12.4L166.5,12.4z M166.8,21.8
			h-0.5c-1.9,0-3,1.2-3,3.2v18c0,2,1.1,3.1,3,3.1h0.5c1.9,0,3-1.1,3-3.1V25C169.8,22.9,168.7,21.8,166.8,21.8L166.8,21.8z"/>
	</g>
	<g>
		<path class="st0" d="M173.2,39.7c0-1.5,2-2.7,2.1-2.5c1.7,2.5,4.8,4.5,8.9,4.5c4.1,0,6.4-1.7,6.4-4.6c0-3.3-3.5-4.1-7.4-5
			c-4.6-1-9.3-2.6-9.3-8.6c0-5,4.3-8.6,10.6-8.6c6.6,0,10.1,3.1,10.1,5.2c0,1.7-2.1,2.7-2.2,2.6c-1.5-2.2-4.5-4-7.9-4
			c-3.7,0-6.1,1.8-6.1,4.5c0,3.2,2.9,3.7,7,4.7c5,1.1,9.8,3.1,9.8,8.8c0,5.4-4.2,8.8-11.1,8.8S173.2,42.1,173.2,39.7z"/>
		<path d="M184.5,14.9c6.6,0,10.1,3.1,10.1,5.2c0,1.6-1.9,2.6-2.2,2.6c0,0,0,0,0,0c-1.5-2.2-4.5-4-7.9-4c-3.7,0-6.1,1.8-6.1,4.5
			c0,3.2,2.9,3.7,7,4.7c5,1.1,9.8,3.1,9.8,8.8c0,5.4-4.2,8.8-11.1,8.8s-10.9-3.4-10.9-5.8c0-1.4,1.7-2.5,2-2.5c0,0,0,0,0.1,0
			c1.7,2.5,4.8,4.5,8.9,4.5c4.1,0,6.4-1.7,6.4-4.6c0-3.3-3.5-4.1-7.4-5c-4.6-1-9.3-2.6-9.3-8.6C173.9,18.5,178.2,14.9,184.5,14.9
			 M184.5,13.9c-6.8,0-11.6,3.9-11.6,9.6c0,7.4,6.6,8.8,10.1,9.6c4.1,0.9,6.6,1.6,6.6,4c0,3.1-3.4,3.6-5.4,3.6c-3.4,0-6.3-1.5-8.1-4
			c-0.2-0.3-0.5-0.5-0.9-0.5c-0.9,0-3,1.6-3,3.5c0,3.3,4.8,6.8,11.9,6.8c7.5,0,12.1-3.8,12.1-9.8c0-6.6-5.7-8.7-10.6-9.8l-0.7-0.2
			c-4.1-1-5.5-1.5-5.5-3.6c0-2.1,2-3.5,5.1-3.5c3.2,0,5.9,1.8,7.1,3.6l0.1,0.1l0.1,0.1l0.3,0.3l0.4,0c0.8,0,3.2-1.4,3.2-3.6
			C195.6,17.1,191.4,13.9,184.5,13.9L184.5,13.9z"/>
	</g>
	<g>
		<path class="st0" d="M199.5,15.9c0-1.6,1-2.5,2.7-2.5s2.6,0.9,2.6,2.5s-1,2.5-2.7,2.5C200.5,18.4,199.5,17.5,199.5,15.9z
			 M199.9,43V25c0-1.6,0.9-2.2,2-2.2h0.5c1.2,0,2,0.5,2,2.2v18c0,1.6-0.8,2.1-2,2.1H202C200.8,45.1,199.9,44.6,199.9,43z"/>
		<path d="M202.2,13.4c1.7,0,2.6,0.9,2.6,2.5c0,1.6-1,2.5-2.7,2.5c-1.6,0-2.6-0.9-2.6-2.5C199.5,14.3,200.5,13.4,202.2,13.4
			 M202.4,22.8c1.2,0,2,0.5,2,2.2v18c0,1.6-0.8,2.1-2,2.1H202c-1.2,0-2.1-0.5-2.1-2.1V25c0-1.6,0.9-2.2,2-2.2H202.4 M202.2,12.4
			c-2.2,0-3.7,1.4-3.7,3.5c0,2.1,1.4,3.5,3.6,3.5c2.2,0,3.7-1.4,3.7-3.5C205.8,13.7,204.4,12.4,202.2,12.4L202.2,12.4z M202.4,21.8
			h-0.5c-1.9,0-3,1.2-3,3.2v18c0,2,1.1,3.1,3.1,3.1h0.4c1.9,0,3-1.1,3-3.1V25C205.4,22.9,204.3,21.8,202.4,21.8L202.4,21.8z"/>
	</g>
	<g>
		<path class="st0" d="M229.7,22.8c0.9,0,1.6,0.4,1.6,0.5v20.2c0,6.8-3.9,10.5-11.2,10.5c-6.3,0-9.6-1.6-9.6-4.1
			c0-1,1.1-2.1,2.3-2.1c1.6,1.2,3.3,2.4,7.2,2.4c4.5,0,6.9-2.3,6.9-6.6v-3c-1.7,2.5-4.3,4-7.7,4c-6.1,0-10.2-4.2-10.2-11
			c0-6.4,4.5-11.1,10.4-11.1c3.5,0,6.3,1.5,7.6,3.5C227.1,23.4,228.4,22.8,229.7,22.8z M220.1,26.2c-4.1,0-6.8,3.1-6.8,7.4
			c0,4.5,2.6,7.4,6.7,7.4c3.6,0,6.8-2.6,6.8-6.2v-4.2C225.7,27.8,223.4,26.2,220.1,26.2z"/>
		<path d="M219.4,22.5c3.5,0,6.3,1.5,7.6,3.5c0.1-2.6,1.4-3.2,2.7-3.2c0.9,0,1.6,0.4,1.6,0.5v20.2c0,6.8-3.9,10.5-11.2,10.5
			c-6.3,0-9.6-1.6-9.6-4.1c0-1,1.1-2.1,2.3-2.1c1.6,1.2,3.3,2.4,7.2,2.4c4.5,0,6.9-2.3,6.9-6.6v-3c-1.7,2.5-4.3,4-7.7,4
			c-6.1,0-10.2-4.2-10.2-11C209,27.2,213.5,22.5,219.4,22.5 M220,41c3.6,0,6.8-2.6,6.8-6.2v-4.2c-1.1-2.8-3.4-4.4-6.7-4.4
			c-4.1,0-6.8,3.1-6.8,7.4C213.3,38.1,215.9,41,220,41 M219.4,21.5c-6.5,0-11.4,5.2-11.4,12.1c0,7.3,4.4,12,11.2,12
			c2.6,0,4.9-0.8,6.7-2.4v0.4c0,3.8-1.9,5.6-5.9,5.6c-3.7,0-5.2-1.1-6.6-2.2l-0.3-0.2h-0.3c-1.7,0-3.3,1.5-3.3,3.1
			c0,4.6,7.4,5.1,10.6,5.1c7.9,0,12.2-4.1,12.2-11.5V23.3c0-1.1-1.8-1.5-2.6-1.5c-1,0-2.5,0.3-3.3,2.1
			C224.7,22.4,222.1,21.5,219.4,21.5L219.4,21.5z M220,40c-3.5,0-5.7-2.5-5.7-6.4c0-3.8,2.3-6.4,5.8-6.4c2.7,0,4.7,1.2,5.7,3.6v4
			C225.8,37.7,223.2,40,220,40L220,40z"/>
	</g>
	<g>
		<path class="st0" d="M247.7,22.5c5.8,0,8.5,4,8.5,9.5v11c0,1.6-0.9,2.1-2,2.1h-0.5c-1.2,0-2-0.5-2-2.1V32.5c0-3.8-1.9-6-5.1-6
			c-3.7,0-6.1,2.5-6.1,6.4V43c0,1.6-0.9,2.1-2,2.1H238c-1.2,0-2-0.5-2-2.1V14.2c0-0.1,0.7-0.5,1.6-0.5c1.4,0,2.9,0.7,2.9,3.9v9
			C241.9,24.2,244.3,22.5,247.7,22.5z"/>
		<path d="M237.6,13.7c1.4,0,2.9,0.7,2.9,3.9v9c1.4-2.4,3.8-4.1,7.2-4.1c5.8,0,8.5,4,8.5,9.5v11c0,1.6-0.9,2.1-2,2.1h-0.5
			c-1.2,0-2-0.5-2-2.1V32.5c0-3.8-1.9-6-5.1-6c-3.7,0-6.1,2.5-6.1,6.4V43c0,1.6-0.9,2.1-2,2.1H238c-1.2,0-2-0.5-2-2.1V14.2
			C236,14.1,236.7,13.7,237.6,13.7 M237.6,12.7c-0.8,0-2.6,0.4-2.6,1.5V43c0,2,1.1,3.1,3,3.1h0.5c1.9,0,3-1.2,3-3.1V32.9
			c0-3.3,2-5.4,5.1-5.4c3.6,0,4.1,3.1,4.1,5V43c0,2,1.1,3.1,3,3.1h0.5c1.9,0,3-1.2,3-3.1V32c0-6.6-3.6-10.5-9.5-10.5
			c-2.4,0-4.5,0.8-6.2,2.3v-6.2C241.5,13.3,239.1,12.7,237.6,12.7L237.6,12.7z"/>
	</g>
	<g>
		<path class="st0" d="M261.1,26.8c-1.4,0-2-0.6-2-1.7v-0.3c0-1.1,0.5-1.7,2-1.7h1.6v-3.4c0-1.5,0.8-2.1,2-2.1h0.5
			c1.2,0,2,0.5,2,2.1v3.4h5c1.4,0,1.9,0.5,1.9,1.6V25c0,1.1-0.5,1.7-2,1.7h-5v11.1c0,2.7,0.8,4.1,2.9,4.1c1.4,0,2.4-0.6,3.1-1.5
			c0.1-0.1,1.3,0.5,1.3,1.9c0,1.7-1.9,3.3-5.1,3.3c-4.5,0-6.6-2.5-6.6-7.2V26.8H261.1z"/>
		<path d="M265.2,17.6c1.2,0,2,0.5,2,2.1v3.4h5c1.4,0,1.9,0.5,1.9,1.6V25c0,1.1-0.5,1.7-2,1.7h-5v11.1c0,2.7,0.8,4.1,2.9,4.1
			c1.4,0,2.4-0.6,3.1-1.5c0,0,0,0,0,0c0.2,0,1.3,0.6,1.3,1.9c0,1.7-1.9,3.3-5.1,3.3c-4.5,0-6.6-2.5-6.6-7.2V26.8h-1.6
			c-1.4,0-2-0.6-2-1.7v-0.3c0-1.1,0.5-1.7,2-1.7h1.6v-3.4c0-1.5,0.8-2.1,2-2.1H265.2 M265.2,16.6h-0.5c-1.9,0-3,1.2-3,3.1v2.4h-0.6
			c-2.6,0-3,1.7-3,2.7v0.3c0,0.8,0.3,2.7,3,2.7h0.6v10.6c0,6.8,4.1,8.2,7.6,8.2c4,0,6.1-2.2,6.1-4.3c0-1.9-1.5-2.9-2.3-2.9h-0.4
			l-0.3,0.3l0,0l0,0c-0.6,0.7-1.3,1.1-2.3,1.1c-0.8,0-1.9,0-1.9-3.1V27.7h4c2.6,0,3-1.7,3-2.7v-0.3c0-1.2-0.5-2.6-2.9-2.6h-4v-2.4
			C268.2,17.7,267.1,16.6,265.2,16.6L265.2,16.6z"/>
	</g>
</g>
</svg>
